<?xml version="1.0" encoding="utf-8"?><!-- Uploaded to: SVG Repo, www.svgrepo.com, Generator: SVG Repo Mixer Tools -->
<svg fill="#000000" width="800px" height="800px" viewBox="0 0 24 24" id="gallery-collections-round" data-name="Flat Line" xmlns="http://www.w3.org/2000/svg" class="icon flat-line"><path id="secondary" d="M16,4H4A1,1,0,0,0,3,5v8.44L7.76,8.68l3.48,3.49,2.84-2.84L17,12.26V5A1,1,0,0,0,16,4Z" style="fill: rgb(44, 169, 188); stroke-width: 2;"></path><path id="primary" d="M5,20H17a4,4,0,0,0,4-4V8" style="fill: none; stroke: rgb(0, 0, 0); stroke-linecap: round; stroke-linejoin: round; stroke-width: 2;"></path><path id="primary-2" data-name="primary" d="M11.24,12.17,7.41,16H4a1,1,0,0,1-1-1V13.44L7.76,8.68Zm2.84-2.84L7.41,16H16a1,1,0,0,0,1-1V12.26ZM4,4H16a1,1,0,0,1,1,1V15a1,1,0,0,1-1,1H4a1,1,0,0,1-1-1V5A1,1,0,0,1,4,4Z" style="fill: none; stroke: rgb(0, 0, 0); stroke-linecap: round; stroke-linejoin: round; stroke-width: 2;"></path></svg>