<?xml version="1.0" ?><!-- Uploaded to: SVG Repo, www.svgrepo.com, Generator: SVG Repo Mixer Tools -->
<svg width="800px" height="800px" viewBox="0 0 60 60" xmlns="http://www.w3.org/2000/svg"><rect fill="#ffffff" height="60" rx="10" width="60"/><path d="M51.99,17.51A1.505,1.505,0,0,1,52,14.5h0A1.5,1.5,0,0,1,53.5,16,1.518,1.518,0,0,1,51.99,17.51Z" fill="#8d9cf4"/><path d="M47.92,20.75v.01A10.064,10.064,0,0,1,48,22c0,14-10,26-26,26A27.669,27.669,0,0,1,8,44a31.363,31.363,0,0,0,12.47-4.42,14.59,14.59,0,0,1-6.35-4.4c1.05-.28,2.33-.66,3.88-1.18l-.62-.17a10.562,10.562,0,0,1-7.64-8.79c0-.02-.01-.04-.01-.07A9.779,9.779,0,0,0,14,26s-.44-.44-1.1-1.25a9.387,9.387,0,0,1-.93-10.69L12,14s7.05,8.81,16.18,9.89A10.625,10.625,0,0,1,28,22a10,10,0,0,1,19.01-4.33,23.126,23.126,0,0,0,4.98-1.66A13.875,13.875,0,0,1,47.92,20.75Z" fill="#bec6f4"/><path d="M22,49.5A29,29,0,0,1,7.168,45.248a1.5,1.5,0,0,1,.68-2.74,31.332,31.332,0,0,0,9.351-2.79,16.783,16.783,0,0,1-4.219-3.563,1.5,1.5,0,0,1,.656-2.4,11.847,11.847,0,0,1-5.384-8.53,1.887,1.887,0,0,1-.022-.26,1.5,1.5,0,0,1,2.155-1.35l.007,0a10.778,10.778,0,0,1,.289-10.33,1.461,1.461,0,0,1,1.172-.8,1.485,1.485,0,0,1,1.317.571c.062.077,5.822,7.154,13.33,9V22a11.5,11.5,0,0,1,21.275-6.05A22,22,0,0,0,51.3,14.677a1.544,1.544,0,0,1,1.737.3,1.485,1.485,0,0,1,.3,1.7,15.011,15.011,0,0,1-3.849,4.745c.011.2.016.389.016.577C49.5,37.935,37.935,49.5,22,49.5Zm-9.406-4.885A25.713,25.713,0,0,0,22,46.5c16.084,0,24.5-12.325,24.5-24.5a8.7,8.7,0,0,0-.068-1.055,1.437,1.437,0,0,1-.012-.185,1.517,1.517,0,0,1,.6-1.207c.189-.144.39-.3.6-.478-.1.023-.206.044-.307.065a1.5,1.5,0,0,1-1.652-.822A8.5,8.5,0,0,0,29.5,22a9.155,9.155,0,0,0,.156,1.625,1.5,1.5,0,0,1-.385,1.293A1.476,1.476,0,0,1,28,25.379c-7.068-.835-12.851-5.865-15.546-8.633a8,8,0,0,0,1.6,7.054c.594.732,1,1.136,1,1.139A1.5,1.5,0,0,1,14,27.5a10.458,10.458,0,0,1-2.115-.217,9.135,9.135,0,0,0,5.908,5.1l.605.166a1.5,1.5,0,0,1,.079,2.868q-.768.258-1.5.485a12.5,12.5,0,0,0,3.969,2.252,1.5,1.5,0,0,1,.343,2.674A30.3,30.3,0,0,1,12.594,44.615Z" fill="#8d9cf4"/><path d="M51.99,17.51A1.505,1.505,0,0,1,52,14.5h0A1.5,1.5,0,0,1,53.5,16,1.518,1.518,0,0,1,51.99,17.51Z" fill="#8d9cf4"/><path d="M28.178,25.39A1.5,1.5,0,0,1,26.7,24.154,12.058,12.058,0,0,1,26.5,22,11.513,11.513,0,0,1,38,10.5a1.5,1.5,0,0,1,0,3A8.51,8.51,0,0,0,29.5,22a9.155,9.155,0,0,0,.156,1.625,1.5,1.5,0,0,1-1.478,1.765Z" fill="#7bcdd1"/><path d="M28.182,25.39A1.329,1.329,0,0,1,28,25.379c-9.63-1.138-16.871-10.063-17.175-10.441a1.5,1.5,0,0,1,2.341-1.876c.067.084,6.792,8.346,15.185,9.338a1.5,1.5,0,0,1-.173,2.99Z" fill="#8d9cf4"/><path d="M8,45.5a1.5,1.5,0,0,1-.15-2.992,30.084,30.084,0,0,0,11.8-4.181,1.5,1.5,0,1,1,1.648,2.506A32.619,32.619,0,0,1,8.151,45.492C8.1,45.5,8.049,45.5,8,45.5Z" fill="#7bcdd1"/><path d="M20.47,41.08A1.506,1.506,0,0,1,19.988,41a16.115,16.115,0,0,1-7.008-4.846A1.5,1.5,0,0,1,15.26,34.2a13.1,13.1,0,0,0,5.691,3.955,1.5,1.5,0,0,1-.481,2.921Z" fill="#8d9cf4"/></svg>